<svg width="421" height="162" viewBox="0 0 421 162" fill="none" xmlns="http://www.w3.org/2000/svg">
<path d="M99.9757 97.1891C101.812 97.1891 103.793 96.9233 105.919 96.3916C107.658 95.9566 109.494 95.7391 111.427 95.7391C112.296 95.7391 113.021 96.1016 113.601 96.8266C114.229 97.6 114.736 98.5426 115.123 99.6543C115.509 100.766 115.751 101.854 115.848 102.917C115.896 103.739 115.437 104.077 114.471 103.932C113.214 103.739 111.837 103.606 110.34 103.533C108.842 103.461 107.392 103.425 105.991 103.425H69.9713C68.9084 103.425 67.8696 103.485 66.855 103.594C65.8403 103.715 64.8981 103.884 64.0284 104.113C61.9992 104.621 60.0424 104.875 58.158 104.875C57.5299 104.875 57.0588 104.802 56.7448 104.657C56.4307 104.512 56.1287 104.246 55.8388 103.872C55.3074 103.11 54.8 102.132 54.3169 100.959C53.8337 99.7873 53.5197 98.7238 53.3747 97.7571C53.2781 97.3704 53.3747 97.0562 53.6284 96.7904C53.882 96.5245 54.2202 96.44 54.6068 96.5366C56.9743 96.9717 59.7525 97.1891 62.9413 97.1891H99.9757ZM92.7283 89.1411C93.2115 87.3044 93.6222 85.2501 93.9604 82.9783C94.2986 80.7065 94.5764 78.3863 94.7938 76.0179C95.0112 73.6494 95.1804 71.3051 95.3011 68.9849C95.4219 66.6648 95.4823 64.538 95.4823 62.6045H77.5087C76.4457 62.6045 75.4069 62.6408 74.3923 62.7133C73.3776 62.7858 72.4355 62.955 71.5658 63.2087C69.5365 63.7646 67.5797 64.0546 65.6954 64.0546C65.0672 64.0546 64.5962 63.9821 64.2821 63.8371C63.9681 63.6921 63.6661 63.4263 63.3762 63.0275C62.8447 62.242 62.3374 61.3116 61.8542 60.2119C61.3711 59.1123 61.057 58.073 60.912 57.1063C60.8154 56.7196 60.912 56.3933 61.1657 56.1275C61.4194 55.8616 61.7576 55.777 62.1441 55.8737C63.352 56.1154 64.6324 56.2604 65.9853 56.3087C67.3381 56.3571 68.8359 56.3812 70.4787 56.3812H94.1778C95.434 56.3812 96.5694 55.9462 97.5841 55.0762C97.874 54.8345 98.2605 54.7257 98.7437 54.7499C99.2268 54.774 99.71 54.8828 100.193 55.0762C101.015 55.3662 101.848 55.7529 102.694 56.2362C103.539 56.7196 104.324 57.2513 105.049 57.8313C105.435 58.1214 105.617 58.4597 105.593 58.8464C105.568 59.2331 105.532 59.5956 105.484 59.934C105.339 62.4958 105.134 65.0697 104.868 67.6557C104.602 70.2417 104.288 72.731 103.926 75.1236C103.563 77.5163 103.14 79.776 102.657 81.9028C102.174 84.0296 101.619 85.9389 100.99 87.6306C100.652 88.549 100.29 89.262 99.9033 89.7695C99.5167 90.2771 98.9369 90.7 98.1639 91.0384C97.6324 91.28 97.0889 91.4371 96.5332 91.5097C95.9776 91.5822 95.4582 91.6184 94.975 91.6184C94.057 91.6184 93.4047 91.3767 93.0182 90.8934C92.6317 90.41 92.535 89.8299 92.7283 89.1532V89.1411Z" fill="white"/>
<path d="M137.155 60.6467C138.411 60.6467 139.547 60.2117 140.561 59.3417C140.851 59.1 141.238 58.9912 141.721 59.0154C142.204 59.0396 142.687 59.1483 143.17 59.3417C143.992 59.6317 144.862 60.0305 145.78 60.538C146.698 61.0455 147.519 61.5893 148.244 62.1693C148.63 62.4594 148.787 62.7856 148.715 63.1482C148.642 63.5107 148.558 63.8611 148.461 64.1995C147.64 66.435 146.818 68.5376 145.997 70.4953C145.176 72.465 144.282 74.3501 143.315 76.1385C144.282 76.2835 145.308 76.3802 146.396 76.4285C147.483 76.4769 148.654 76.501 149.911 76.501H153.172V62.7252C153.172 61.1784 152.713 60.0184 151.795 59.245C150.587 58.0849 149.234 57.239 147.736 56.7073C147.205 56.514 146.987 56.1515 147.084 55.6198C147.181 54.9431 147.386 54.1818 147.7 53.3359C148.014 52.49 148.34 51.8254 148.679 51.342C149.017 51.0036 149.403 50.8828 149.838 50.9795C151.916 51.4145 153.848 52.0791 155.636 52.9733C157.424 53.8676 159.163 54.8706 160.854 55.9823C161.917 56.6107 162.376 57.3599 162.231 58.2299C162.086 59.3417 161.917 60.4897 161.724 61.6739C161.531 62.8581 161.434 64.0786 161.434 65.3354V104.27C161.434 105.527 161.047 106.445 160.274 107.025C159.453 107.654 158.583 108.173 157.665 108.584C156.747 108.995 155.757 109.201 154.694 109.201C153.631 109.201 153.172 108.621 153.172 107.46V82.8089C152.785 82.8573 152.411 82.9056 152.049 82.9539C151.686 83.0023 151.336 83.0748 150.998 83.1715C148.968 83.7032 147.012 83.969 145.127 83.969C144.499 83.969 144.028 83.8965 143.714 83.7515C143.4 83.6065 143.098 83.3406 142.808 82.9539C142.518 82.5672 142.24 82.1202 141.975 81.6126C141.709 81.1051 141.455 80.5613 141.214 79.9813C139.233 83.2681 137.143 86.2529 134.945 88.9356C132.746 91.6182 130.367 94.1196 127.806 96.4398C126.936 97.2132 125.97 97.5273 124.907 97.3823C124.279 97.2857 123.639 97.0682 122.986 96.7298C122.334 96.3915 121.694 95.9806 121.066 95.4972C120.679 95.2555 120.546 94.9413 120.667 94.5547C120.788 94.168 120.969 93.8296 121.211 93.5396C124.979 89.576 128.289 85.3587 131.14 80.8876C133.99 76.4165 136.14 71.7641 137.59 66.9184H135.271C134.933 66.9184 134.437 66.9546 133.785 67.0271C133.133 67.0996 132.372 67.2567 131.502 67.4984C129.473 68.0301 127.516 68.308 125.632 68.308C125.004 68.308 124.532 68.2355 124.218 68.0905C123.904 67.9455 123.602 67.6797 123.312 67.2809C122.781 66.4954 122.274 65.565 121.791 64.4653C121.307 63.3657 120.993 62.3264 120.848 61.3597C120.752 60.973 120.836 60.6467 121.102 60.3809C121.368 60.115 121.694 60.0305 122.08 60.1271C123.288 60.3688 124.569 60.5138 125.922 60.5621C127.274 60.6105 128.772 60.6346 130.415 60.6346H137.155V60.6467ZM175.277 108.645C175.277 109.853 174.866 110.771 174.045 111.4C173.223 112.028 172.329 112.548 171.363 112.959C170.397 113.37 169.382 113.575 168.319 113.575C167.256 113.575 166.725 112.995 166.725 111.835V59.0516C166.725 57.6499 166.266 56.514 165.348 55.644C164.72 55.0639 164.055 54.5564 163.355 54.1213C162.654 53.6863 161.965 53.348 161.289 53.1063C160.758 52.9129 160.54 52.5504 160.637 52.0187C160.733 51.342 160.939 50.5807 161.253 49.7348C161.567 48.8889 161.893 48.2243 162.231 47.741C162.473 47.4026 162.859 47.2817 163.391 47.3784C165.468 47.8134 167.449 48.4781 169.334 49.3723C171.218 50.2665 173.006 51.2695 174.697 52.3812C175.615 52.9613 176.001 53.7105 175.856 54.6289C175.711 55.7406 175.579 56.8886 175.458 58.0728C175.337 59.2571 175.277 60.4776 175.277 61.7343V108.645Z" fill="white"/>
<path d="M247.171 81.9631C244.852 82.4948 242.364 82.9539 239.706 83.3406C237.049 83.7273 234.416 84.0657 231.806 84.3557V88.9235C231.806 90.0835 231.347 91.0019 230.429 91.6786C229.608 92.307 228.666 92.8266 227.603 93.2375C226.54 93.6484 225.477 93.8538 224.414 93.8538C223.255 93.8538 222.675 93.2738 222.675 92.1137V85.2257C222.433 85.2257 222.179 85.2378 221.914 85.262C221.648 85.2862 221.394 85.2982 221.153 85.2982C220.138 85.3949 219.099 85.5399 218.036 85.7333C216.973 85.9266 216.031 86.1683 215.21 86.4583C214.244 86.7967 213.277 87.0625 212.311 87.2559C211.345 87.4492 210.402 87.5459 209.484 87.5459C208.566 87.5459 207.89 87.2076 207.455 86.5308C206.875 85.7091 206.271 84.7545 205.643 83.6669C205.015 82.5793 204.604 81.4797 204.411 80.368C204.266 79.5462 204.677 79.1837 205.643 79.2804C206.513 79.3771 207.419 79.4375 208.361 79.4617C209.303 79.4858 210.378 79.4617 211.586 79.4254C214.147 79.3771 217.058 79.2804 220.319 79.1354C223.581 78.9904 226.878 78.797 230.212 78.5553C233.546 78.3137 236.807 78.0236 239.996 77.6853C243.185 77.3469 245.987 76.9844 248.403 76.5977C248.645 76.5494 248.886 76.5977 249.128 76.779C249.369 76.9482 249.49 77.1778 249.49 77.4678C249.49 78.1928 249.406 78.8212 249.237 79.3529C249.067 79.8846 248.814 80.4163 248.476 80.948C248.234 81.4313 247.799 81.7697 247.171 81.9631ZM211.876 62.1693C211.828 61.6376 211.791 61.1422 211.767 60.683C211.743 60.2238 211.538 59.8734 211.151 59.6317C210.765 59.39 210.342 59.1846 209.883 59.0154C209.424 58.8462 209.001 58.7133 208.615 58.6166C207.987 58.4233 207.673 58.1333 207.673 57.7466C207.624 57.0699 207.636 56.3932 207.709 55.7165C207.781 55.0397 207.914 54.4355 208.107 53.9038C208.252 53.4205 208.591 53.1788 209.122 53.1788C210.668 53.1305 212.323 53.1788 214.086 53.36C215.85 53.5292 217.577 53.8072 219.268 54.1938H230.864C232.024 54.1938 233.087 53.783 234.053 52.9613C234.391 52.7196 234.766 52.6108 235.177 52.635C235.587 52.6592 236.058 52.7437 236.59 52.8887C237.411 53.1304 238.257 53.4325 239.126 53.7951C239.996 54.1576 240.793 54.5805 241.518 55.0639C242.05 55.4023 242.315 56.0306 242.315 56.949C242.315 58.7375 242.182 60.6105 241.917 62.5681C241.651 64.5257 241.325 66.3504 240.938 68.0422C241.421 68.2839 241.76 68.5981 241.953 68.9847C242.436 69.6615 242.774 70.3261 242.968 70.9786C243.161 71.6312 243.306 72.4408 243.402 73.4075C243.499 74.3742 243.016 74.8093 241.953 74.7126C240.842 74.6159 239.767 74.5313 238.728 74.4588C237.689 74.3863 236.541 74.3501 235.285 74.3501H220.718C220.525 74.8334 220.138 75.2201 219.558 75.5101C218.737 75.8968 217.879 76.1748 216.985 76.3439C216.092 76.5131 215.21 76.5736 214.34 76.5252C213.229 76.4769 212.673 75.921 212.673 74.8576L211.876 62.1693ZM248.041 107.702C249.877 107.702 251.858 107.436 253.984 106.905C255.723 106.47 257.559 106.252 259.492 106.252C260.361 106.252 261.086 106.615 261.666 107.34C262.294 108.113 262.801 109.031 263.188 110.095C263.574 111.158 263.816 112.222 263.913 113.285C263.961 114.058 263.502 114.397 262.536 114.3C261.279 114.155 259.902 114.058 258.405 114.01C256.907 113.962 255.457 113.938 254.056 113.938H231.154C230.526 113.938 229.898 113.901 229.27 113.829C228.642 113.756 228.086 113.647 227.603 113.502C226.057 112.971 224.946 112.149 224.269 111.037C223.689 110.216 223.399 109.321 223.399 108.355V104.294C223.399 103.714 223.315 103.11 223.146 102.482C222.977 101.853 222.699 101.37 222.312 101.032C221.877 100.645 221.382 100.343 220.827 100.125C220.271 99.9079 219.727 99.7266 219.196 99.5816C218.52 99.4366 218.23 99.0983 218.326 98.5666C218.375 98.0349 218.471 97.4669 218.616 96.8627C218.761 96.2585 218.93 95.6906 219.123 95.1589C219.317 94.7238 219.776 94.5063 220.5 94.5063C222.095 94.5546 223.907 94.8084 225.936 95.2676C227.965 95.7268 229.995 96.3673 232.024 97.189C232.41 97.334 232.676 97.5757 232.821 97.914C232.966 98.2524 232.99 98.6149 232.894 99.0016C232.7 99.9683 232.58 100.899 232.531 101.793C232.483 102.687 232.459 103.569 232.459 104.439V106.18C232.459 106.808 232.58 107.219 232.821 107.412C233.063 107.605 233.449 107.702 233.981 107.702H248.041ZM220.718 60.2117L220.863 68.3322H232.749L232.821 60.2117H220.718ZM259.999 95.3039C259.999 96.4639 259.54 97.3823 258.622 98.059C257.801 98.6874 256.871 99.207 255.832 99.6179C254.793 100.029 253.742 100.234 252.679 100.234C251.52 100.234 250.94 99.6541 250.94 98.4941V92.9837C250.167 93.0321 249.418 93.0925 248.693 93.165C247.968 93.2375 247.292 93.3462 246.664 93.4912C244.634 94.0229 242.678 94.2888 240.793 94.2888C240.165 94.2888 239.694 94.2163 239.38 94.0713C239.066 93.9263 238.764 93.6604 238.474 93.2737C237.943 92.5004 237.472 91.6061 237.061 90.5911C236.65 89.576 236.372 88.5851 236.227 87.6184C236.131 87.2317 236.215 86.9054 236.481 86.6396C236.747 86.3737 237.073 86.2891 237.459 86.3858C239.827 86.8208 242.605 87.0384 245.794 87.0384H250.94V59.0516C250.94 57.6015 250.505 56.4657 249.635 55.644C248.331 54.4839 246.954 53.638 245.504 53.1063C244.973 52.9129 244.755 52.5504 244.852 52.0187C244.949 51.342 245.166 50.5807 245.504 49.7348C245.842 48.8889 246.181 48.2243 246.519 47.741C246.76 47.4026 247.123 47.2817 247.606 47.3784C249.683 47.8134 251.737 48.4781 253.766 49.3723C255.796 50.2665 257.656 51.2695 259.347 52.3812C260.313 52.9129 260.724 53.6621 260.579 54.6289C260.434 55.7406 260.301 56.8886 260.18 58.0728C260.059 59.2571 259.999 60.4776 259.999 61.7343V95.3039Z" fill="white"/>
<path d="M297.686 66.2296C296.478 66.1329 295.197 66.0604 293.844 66.0121C292.492 65.9637 291.163 65.9396 289.858 65.9396H283.988C283.94 66.4713 283.915 66.9909 283.915 67.4984V88.706C283.915 89.5277 284.302 89.9385 285.075 89.9385C287.153 89.9385 289.568 89.7935 292.322 89.5035C295.077 89.2135 298.024 88.6576 301.164 87.8359C301.551 87.7392 301.841 87.7876 302.034 87.9809C302.227 88.1743 302.324 88.416 302.324 88.706C302.324 89.2377 302.227 89.854 302.034 90.5548C301.841 91.2557 301.623 91.872 301.382 92.4037C301.237 92.6937 301.031 92.9233 300.766 93.0925C300.5 93.2617 300.246 93.3946 300.005 93.4913C297.975 94.313 295.68 95.026 293.12 95.6302C290.559 96.2344 287.974 96.6573 285.365 96.899C284.109 97.044 282.877 96.899 281.669 96.464C280.509 96.0773 279.434 95.4972 278.444 94.7239C277.453 93.9505 276.74 93.2737 276.306 92.6937C276.016 92.307 275.81 91.8841 275.69 91.4249C275.569 90.9657 275.508 90.5186 275.508 90.0836V67.7522C275.508 66.6405 275.194 65.8671 274.566 65.432C274.18 65.142 273.781 64.9124 273.37 64.7433C272.96 64.5741 272.464 64.3928 271.885 64.1995C271.45 64.0545 271.232 63.7403 271.232 63.2569C271.232 62.8219 271.317 62.1814 271.486 61.3355C271.655 60.4897 271.812 59.8975 271.957 59.5592C272.15 59.1725 272.44 58.9791 272.827 58.9791C273.793 58.9308 275.001 58.9791 276.451 59.1241C277.9 59.2691 279.325 59.4625 280.727 59.7042H285.003C285.776 59.7042 286.597 59.6196 287.467 59.4504C288.336 59.2813 289.134 59.1241 289.858 58.9791C290.631 58.8341 291.417 58.7012 292.214 58.5804C293.011 58.4595 293.82 58.3991 294.642 58.3991C295.511 58.3991 296.236 58.7616 296.816 59.4867C297.444 60.2601 297.951 61.1422 298.338 62.1331C298.724 63.124 298.966 64.1511 299.063 65.2145C299.111 65.9879 298.652 66.3263 297.686 66.2296ZM312.905 104.294C312.905 105.551 312.519 106.47 311.746 107.05C310.924 107.678 310.055 108.198 309.137 108.608C308.219 109.019 307.228 109.225 306.165 109.225C305.102 109.225 304.643 108.645 304.643 107.485V79.8604C303.918 79.9088 303.302 79.9571 302.795 80.0054C302.288 80.0538 301.865 80.1263 301.527 80.223C299.497 80.7547 297.541 81.0205 295.656 81.0205C295.028 81.0205 294.557 80.948 294.243 80.803C293.929 80.658 293.627 80.3921 293.337 80.0054C292.806 79.232 292.298 78.3016 291.815 77.214C291.332 76.1264 291.018 75.0993 290.873 74.1326C290.776 73.7459 290.861 73.4196 291.127 73.1538C291.392 72.8879 291.719 72.8033 292.105 72.9C294.473 73.335 297.251 73.5525 300.44 73.5525H304.643V62.7494C304.643 61.2026 304.184 60.0426 303.266 59.2692C302.058 58.1091 300.705 57.2632 299.208 56.7315C298.676 56.5382 298.459 56.1757 298.555 55.644C298.652 54.9672 298.857 54.2059 299.171 53.36C299.485 52.5142 299.811 51.8495 300.15 51.3662C300.488 51.0278 300.874 50.907 301.309 51.0036C303.387 51.4387 305.32 52.1033 307.107 52.9975C308.895 53.8918 310.634 54.8947 312.325 56.0065C313.388 56.6348 313.847 57.384 313.702 58.2541C313.557 59.3658 313.388 60.5138 313.195 61.6981C313.002 62.8823 312.905 64.1028 312.905 65.3595V104.294ZM326.748 108.645C326.748 109.853 326.337 110.771 325.516 111.4C324.694 112.028 323.801 112.548 322.834 112.959C321.868 113.37 320.853 113.575 319.79 113.575C318.727 113.575 318.196 112.995 318.196 111.835V59.0516C318.196 57.6499 317.737 56.514 316.819 55.644C316.191 55.0639 315.526 54.5564 314.826 54.1213C314.125 53.6863 313.437 53.348 312.76 53.1063C312.229 52.9129 312.011 52.5504 312.108 52.0187C312.205 51.342 312.41 50.5807 312.724 49.7348C313.038 48.8889 313.364 48.2243 313.702 47.741C313.944 47.4026 314.331 47.2817 314.862 47.3784C316.94 47.8134 318.921 48.4781 320.805 49.3723C322.689 50.2665 324.477 51.2695 326.168 52.3812C327.086 52.9613 327.473 53.7105 327.328 54.6289C327.183 55.7406 327.05 56.8886 326.929 58.0728C326.808 59.2571 326.748 60.4776 326.748 61.7343V108.645Z" fill="white"/>
<path d="M344.431 61.3717C343.417 62.2418 342.885 63.3777 342.837 64.7794C342.789 65.3595 342.764 65.9999 342.764 66.7008V68.5497C342.764 69.2264 342.426 69.5647 341.75 69.5647H338.416C337.836 69.5647 337.426 69.4439 337.184 69.2022C336.942 68.9605 336.773 68.6705 336.677 68.3322L335.372 59.4866C336.193 58.6166 337.172 57.7948 338.307 57.0214C339.443 56.2481 340.687 55.5472 342.04 54.9188C343.393 54.2905 344.842 53.795 346.388 53.4325C347.934 53.0699 349.553 52.8887 351.244 52.8887C353.563 52.8887 355.713 53.1545 357.694 53.6862C359.675 54.2179 361.39 55.0034 362.84 56.0426C364.289 57.0819 365.425 58.399 366.246 59.9941C367.068 61.5892 367.478 63.4502 367.478 65.577C367.478 67.2687 367.261 68.8034 366.826 70.181C366.391 71.5586 365.775 72.8153 364.978 73.9512C364.181 75.0871 363.238 76.1505 362.151 77.1414C361.064 78.1323 359.893 79.087 358.636 80.0053C357.38 80.9721 356.317 82.0597 355.447 83.2681C354.578 84.4765 353.998 85.8057 353.708 87.2558C353.515 88.2225 353.382 89.3343 353.309 90.591C353.237 91.8477 353.201 93.032 353.201 94.1437H347.185C346.992 92.742 346.883 91.1469 346.859 89.3584C346.835 87.57 346.992 85.9507 347.33 84.5006C347.717 82.9055 348.369 81.395 349.287 79.9691C350.205 78.5432 351.365 77.2743 352.766 76.1626C354.457 74.8575 355.786 73.4074 356.752 71.8123C357.718 70.2172 358.201 68.3321 358.201 66.157C358.201 63.9819 357.525 62.4472 356.172 61.263C354.819 60.0787 353.08 59.4383 350.954 59.3416C349.698 59.2933 348.478 59.4503 347.294 59.8129C346.11 60.1754 345.156 60.695 344.431 61.3717ZM355.882 105.744C355.882 107.436 355.339 108.826 354.252 109.913C353.165 111.001 351.775 111.545 350.084 111.545C348.393 111.545 347.004 111.001 345.917 109.913C344.83 108.826 344.286 107.436 344.286 105.744C344.286 104.053 344.83 102.663 345.917 101.575C347.004 100.488 348.393 99.9441 350.084 99.9441C351.775 99.9441 353.165 100.488 354.252 101.575C355.339 102.663 355.882 104.053 355.882 105.744Z" fill="white"/>
<path d="M210.403 160.655C326.053 160.655 419.805 124.915 419.805 80.8274C419.805 36.74 326.053 1 210.403 1C94.7528 1 1 36.74 1 80.8274C1 124.915 94.7528 160.655 210.403 160.655Z" stroke="white" stroke-miterlimit="10"/>
</svg>
