<svg width="877" height="172" viewBox="0 0 877 172" fill="none" xmlns="http://www.w3.org/2000/svg">
<path d="M270.914 127.088C275.41 127.088 280.263 126.432 285.486 125.118C289.754 124.047 294.25 123.505 298.988 123.505C301.115 123.505 302.899 124.404 304.312 126.189C305.854 128.102 307.095 130.444 308.037 133.2C308.979 135.955 309.579 138.64 309.821 141.281C309.936 143.323 308.808 144.151 306.439 143.794C303.356 143.323 299.988 142.981 296.305 142.809C292.637 142.624 289.083 142.538 285.644 142.538H197.353C194.741 142.538 192.2 142.681 189.717 142.966C187.233 143.252 184.921 143.68 182.794 144.251C177.828 145.508 173.032 146.136 168.408 146.136C166.866 146.136 165.71 145.965 164.939 145.608C164.169 145.251 163.426 144.594 162.727 143.652C161.428 141.753 160.172 139.354 159.002 136.455C157.817 133.542 157.047 130.915 156.69 128.545C156.447 127.602 156.661 126.789 157.318 126.132C157.974 125.475 158.774 125.261 159.716 125.504C165.525 126.574 172.333 127.117 180.14 127.117H270.914V127.088ZM273.583 100.516C266.832 92.9769 259.838 86.1945 252.617 80.1404C245.395 74.1005 238.23 68.5604 231.122 63.5344C224.599 71.7874 217.591 79.2408 210.07 85.8804C202.548 92.5199 195.112 97.9315 187.776 102.115C186.348 102.958 184.907 103.529 183.422 103.829C181.938 104.128 180.497 103.986 179.069 103.386C177.414 102.786 175.986 102.101 174.802 101.316C173.617 100.53 172.618 99.7878 171.79 99.0738C170.834 98.1172 170.491 97.0034 170.72 95.7612C170.948 94.5047 171.662 93.5194 172.846 92.8055C177.585 89.6928 182.409 86.0089 187.319 81.7681C192.229 77.5131 196.939 72.9154 201.435 67.9464C205.931 62.9775 210.112 57.8657 213.952 52.5969C217.791 47.3281 221.145 42.1878 223.985 37.1617C225.17 35.1342 225.227 33.5064 224.171 32.3213C223.215 31.2504 222.13 30.2223 220.888 29.2657C219.647 28.309 218.733 27.6522 218.134 27.2952C215.879 25.7389 215.236 23.954 216.178 21.9122C216.649 20.9555 217.42 19.6419 218.49 17.957C219.561 16.2864 220.446 15.0299 221.159 14.1875C221.759 13.5878 222.401 13.2308 223.115 13.1166C223.828 13.0023 224.828 13.1737 226.126 13.6592C227.91 14.2589 229.794 15.0299 231.807 15.9866C233.819 16.9432 235.832 17.9998 237.844 19.1279C239.857 20.2701 241.755 21.4553 243.525 22.7118C245.309 23.9683 246.836 25.1963 248.149 26.3957C249.448 27.5951 250.076 28.9658 250.019 30.5222C249.962 32.0786 249.634 33.5207 249.048 34.8343C247.864 37.3474 246.622 39.8319 245.323 42.2878C244.024 44.7437 242.597 47.1711 241.056 49.5556C248.52 53.8677 256.57 59.1937 265.219 65.5334C273.854 71.8731 282.275 78.8839 290.439 86.5372C291.624 87.6081 292.038 88.7504 291.681 89.9498C291.324 91.1492 290.853 92.2344 290.254 93.1768C289.54 94.2477 288.355 95.6327 286.7 97.3033C285.044 98.9739 283.56 100.23 282.261 101.073C280.248 102.386 278.621 102.958 277.38 102.786C276.138 102.615 274.868 101.858 273.555 100.545L273.583 100.516Z" fill="#FF0000" stroke="white" stroke-width="2" stroke-miterlimit="10"/>
<path d="M326.52 27.4669C329.474 27.7097 332.614 27.881 335.94 27.9952C339.251 28.1237 342.519 28.1808 345.716 28.1808H370.765C373.605 28.1808 376.217 27.1671 378.586 25.1252C379.414 24.5255 380.328 24.2542 381.341 24.3256C382.34 24.3827 383.496 24.5969 384.809 24.9539C386.822 25.5536 388.891 26.2961 391.032 27.1956C393.159 28.0952 395.114 29.1375 396.898 30.3369C398.197 31.1794 398.854 32.7357 398.854 35.006C398.611 38.3615 398.254 41.7027 397.783 45.0582C397.184 48.0424 396.627 51.5835 396.099 55.6529C395.571 59.7223 395 63.192 394.415 66.062C395.956 66.419 397.141 67.2614 397.969 68.5751C398.911 70.0172 399.681 71.7735 400.281 73.8724C400.88 75.9714 401.223 77.9133 401.351 79.7124C401.594 82.1112 400.409 83.1821 397.797 82.9393C395.071 82.6966 392.174 82.4967 389.091 82.3111C386.008 82.1255 382.94 82.0398 379.857 82.0398L351.782 82.2254C351.54 83.7818 351.425 85.3382 351.425 86.8945V106.099C351.425 108.141 352.367 109.155 354.266 109.155C356.749 109.155 360.189 108.984 364.571 108.612C368.952 108.255 373.748 107.741 378.957 107.084C384.167 106.428 389.619 105.685 395.3 104.843C400.98 104.015 406.375 103.115 411.471 102.144C412.413 101.901 413.126 102.03 413.597 102.501C414.068 102.972 414.311 103.572 414.311 104.3C414.311 105.614 414.068 107.142 413.597 108.884C413.126 110.626 412.584 112.139 411.999 113.467C411.285 114.781 410.158 115.68 408.616 116.151C405.533 117.108 401.594 118.093 396.798 119.121C392.003 120.149 386.993 121.163 381.784 122.177C376.574 123.191 371.507 124.062 366.597 124.776C361.688 125.49 357.506 126.032 354.08 126.389C352.653 126.503 351.154 126.503 349.556 126.389C347.957 126.275 346.444 125.918 345.017 125.318C342.177 124.362 339.536 122.934 337.11 121.006C334.684 119.093 332.942 117.422 331.872 115.98C331.158 115.023 330.659 113.981 330.359 112.839C330.059 111.696 329.917 110.597 329.917 109.526V88.1653C329.917 85.4096 329.146 83.4962 327.604 82.4253C326.662 81.7114 325.678 81.1402 324.678 80.7262C323.679 80.3121 322.466 79.8552 321.039 79.384C319.969 79.027 319.44 78.2417 319.44 77.0423C319.44 75.9714 319.64 74.3865 320.068 72.2875C320.497 70.1885 320.868 68.7321 321.225 67.8897C321.696 66.933 322.409 66.4476 323.351 66.4476C325.364 66.3333 327.876 66.3619 330.901 66.5332C333.913 66.7188 336.967 67.0473 340.05 67.5184L375.575 66.9759V43.6446H357.634C355.736 43.6446 353.723 43.8588 351.597 44.2729C349.47 44.7012 347.515 45.0867 345.731 45.4437C343.832 45.8007 341.906 46.1291 339.95 46.4289C337.995 46.7288 336.011 46.8716 333.999 46.8716C331.872 46.8716 330.088 45.972 328.661 44.1729C327.119 42.2596 325.877 40.0749 324.935 37.619C323.979 35.1631 323.394 32.6215 323.166 29.9942C323.037 28.0809 324.165 27.2385 326.534 27.4812L326.52 27.4669ZM420.491 29.98C420.491 26.396 419.421 23.5831 417.294 21.5413C415.638 20.0992 414.011 18.8855 412.413 17.8574C410.814 16.8436 409.187 16.0297 407.531 15.43C405.99 14.8303 405.333 13.8166 405.576 12.3744C405.804 10.7038 406.318 8.87616 407.089 6.90571C407.86 4.93526 408.659 3.35034 409.487 2.15093C410.2 1.19426 411.271 0.837299 412.684 1.08004C417.893 2.0367 422.932 3.65019 427.784 5.93477C432.637 8.20507 437.133 10.7181 441.286 13.4739C443.541 14.916 444.483 16.7722 444.127 19.0425C443.77 21.7983 443.442 24.6398 443.156 27.5669C442.856 30.5083 442.714 33.5211 442.714 36.6338V62.8351H444.312C445.968 62.8351 447.509 62.6923 448.937 62.3924C450.364 62.0926 451.834 61.707 453.375 61.2216C456.458 60.2649 459.113 59.7794 461.368 59.7794C463.266 59.7794 464.808 60.5648 465.992 62.1211C467.648 64.163 468.918 66.4904 469.803 69.1176C470.688 71.7449 471.259 74.2579 471.487 76.6568C471.602 77.6134 471.345 78.3988 470.688 78.9842C470.032 79.5839 469.175 79.7695 468.119 79.5268C465.75 79.1698 463.323 78.8699 460.826 78.6272C458.342 78.3845 455.502 78.2702 452.305 78.2702H442.714V152.762C442.714 155.632 441.586 157.902 439.331 159.587C437.319 161.143 435.035 162.428 432.494 163.442C429.94 164.456 427.37 164.97 424.759 164.97C421.918 164.97 420.491 163.528 420.491 160.658V29.98Z" fill="#FF0000" stroke="white" stroke-width="2" stroke-miterlimit="10"/>
<path d="M568.113 72.0733C568.113 78.0418 567.086 83.5962 565.016 88.7365C562.947 93.8768 559.992 98.3174 556.153 102.087C552.314 105.842 547.703 108.841 542.323 111.04C536.942 113.239 530.947 114.352 524.325 114.352C517.702 114.352 511.679 113.253 506.241 111.04C500.803 108.826 496.193 105.842 492.411 102.087C488.629 98.3317 485.703 93.8768 483.633 88.7365C481.564 83.5962 480.536 78.0418 480.536 72.0733C480.536 66.1048 481.564 60.7075 483.633 55.5101C485.703 50.3127 488.629 45.8435 492.411 42.0739C496.193 38.3044 500.803 35.3202 506.241 33.1212C511.679 30.9081 517.702 29.8086 524.325 29.8086C530.947 29.8086 536.942 30.9081 542.323 33.1212C547.703 35.3344 552.314 38.3187 556.153 42.0739C559.992 45.8292 562.947 50.3127 565.016 55.5101C567.086 60.7075 568.113 66.2334 568.113 72.0733ZM545.905 72.0733C545.905 68.4751 545.434 65.0197 544.478 61.7213C543.522 58.423 542.094 55.5672 540.196 53.1684C538.298 50.7696 536 48.842 533.331 47.3999C530.648 45.9577 527.65 45.2438 524.325 45.2438C520.999 45.2438 517.845 45.972 515.233 47.3999C512.621 48.842 510.352 50.7696 508.454 53.1684C506.555 55.5672 505.128 58.423 504.172 61.7213C503.216 65.0197 502.745 68.4751 502.745 72.0733C502.745 75.6715 503.216 79.1269 504.172 82.4253C505.128 85.7237 506.555 88.5794 508.454 90.9782C510.352 93.377 512.621 95.3046 515.233 96.7468C517.845 98.1889 520.885 98.9028 524.325 98.9028C527.765 98.9028 530.662 98.1889 533.331 96.7468C536 95.3046 538.298 93.377 540.196 90.9782C542.094 88.5794 543.522 85.7237 544.478 82.4253C545.42 79.1269 545.905 75.6715 545.905 72.0733ZM586.939 29.98C586.939 26.396 585.883 23.5831 583.742 21.5413C582.086 20.0992 580.459 18.8855 578.861 17.8574C577.262 16.8293 575.635 16.0297 573.98 15.43C572.438 14.8303 571.796 13.8166 572.024 12.3744C572.253 10.7038 572.766 8.87616 573.537 6.90571C574.308 4.93526 575.107 3.35034 575.935 2.15093C576.649 1.19426 577.719 0.837299 579.132 1.08004C584.342 2.0367 589.38 3.65019 594.232 5.93477C599.085 8.20507 603.581 10.7181 607.734 13.4739C609.989 14.916 610.931 16.7722 610.575 19.0425C610.218 21.7983 609.89 24.6397 609.59 27.5669C609.29 30.5083 609.147 33.521 609.147 36.6338V152.776C609.147 155.646 608.02 157.916 605.779 159.601C603.767 161.158 601.483 162.443 598.943 163.456C596.388 164.47 593.819 164.984 591.221 164.984C588.381 164.984 586.953 163.542 586.953 160.672V29.98H586.939Z" fill="#FF0000" stroke="white" stroke-width="2" stroke-miterlimit="10"/>
<path d="M719.119 63.1775C716.15 62.9348 713.025 62.7634 709.699 62.6349C706.388 62.5207 703.119 62.4493 699.922 62.4493H674.702V75.5571C674.702 77.5989 675.644 78.6127 677.543 78.6127C680.026 78.6127 683.609 78.4271 688.29 78.0701C692.971 77.7131 698.081 77.1991 703.647 76.5423C709.214 75.8855 714.951 75.1287 720.874 74.3005C726.798 73.4581 732.307 72.5586 737.402 71.6019C738.344 71.3592 739.058 71.4877 739.529 71.9589C740 72.4443 740.243 73.0297 740.243 73.758C740.243 75.0716 740 76.5994 739.529 78.3271C739.058 80.0691 738.516 81.5969 737.93 82.9105C737.217 84.2242 736.089 85.1237 734.548 85.6092C731.465 86.5659 727.383 87.5511 722.287 88.5649C717.192 89.5787 711.897 90.6067 706.388 91.6205C700.878 92.6343 695.526 93.5053 690.317 94.2192C685.107 94.9331 680.782 95.4757 677.343 95.8327C675.915 95.9469 674.417 95.9469 672.818 95.8327C671.22 95.7185 669.707 95.3615 668.28 94.7618C665.439 93.8051 662.799 92.363 660.372 90.4497C657.946 88.5363 656.205 86.8657 655.135 85.4236C654.421 84.4669 653.921 83.4246 653.622 82.2823C653.322 81.14 653.179 80.0405 653.179 78.9554V38.0329C653.179 35.2771 652.408 33.3638 650.867 32.2929C649.925 31.5789 648.797 31.0078 647.484 30.5794C646.186 30.1653 644.815 29.7084 643.402 29.2372C642.332 28.8803 641.804 28.0949 641.804 26.9098C641.804 25.8389 642.004 24.2397 642.432 22.155C642.846 20.0561 643.231 18.5997 643.588 17.7572C644.059 16.8006 644.773 16.3151 645.715 16.3151C648.198 16.2009 651.509 16.2865 655.663 16.5864C659.802 16.8862 663.769 17.4003 667.566 18.1142H689.774C691.658 18.1142 693.685 17.9143 695.812 17.4859C697.938 17.0719 699.894 16.6863 701.678 16.3151C703.576 15.9581 705.503 15.6297 707.444 15.3299C709.399 15.03 711.383 14.8872 713.396 14.8872C715.522 14.8872 717.306 15.7868 718.719 17.5716C720.261 19.4849 721.502 21.6696 722.459 24.1255C723.401 26.5814 724 29.123 724.229 31.7503C724.343 33.6636 723.215 34.506 720.846 34.2633C717.891 34.0206 714.751 33.8492 711.426 33.7207C708.115 33.6065 704.861 33.5351 701.663 33.5351H674.845C674.731 34.8487 674.674 36.1338 674.674 37.3903V46.9998H687.99C689.889 46.9998 691.901 46.7856 694.028 46.3716C696.154 45.9575 698.11 45.572 699.894 45.2007C701.792 44.8438 703.719 44.5153 705.674 44.2155C707.629 43.9156 709.613 43.7729 711.626 43.7729C713.752 43.7729 715.536 44.6724 716.964 46.4715C718.505 48.3849 719.747 50.5695 720.689 53.0254C721.631 55.4813 722.23 58.0229 722.473 60.6502C722.587 62.5635 721.46 63.406 719.09 63.1632L719.119 63.1775ZM769.387 135.427C769.387 140.439 768.374 145.065 766.362 149.306C764.349 153.547 761.537 157.216 757.926 160.315C754.315 163.413 749.991 165.826 744.952 167.568C739.914 169.296 734.391 170.167 728.339 170.167C722.287 170.167 716.578 169.296 711.554 167.568C706.516 165.826 702.192 163.413 698.581 160.315C694.97 157.202 692.158 153.533 690.145 149.306C688.133 145.065 687.12 140.453 687.12 135.427C687.12 130.401 688.119 125.789 690.145 121.548C692.158 117.308 694.97 113.638 698.581 110.54C702.192 107.441 706.516 105.014 711.554 103.286C716.578 101.558 722.173 100.687 728.339 100.687C734.505 100.687 739.914 101.558 744.952 103.286C749.991 105.014 754.301 107.441 757.926 110.54C761.552 113.638 764.349 117.322 766.362 121.548C768.374 125.789 769.387 130.415 769.387 135.427ZM747.008 135.427C747.008 129.659 745.281 125.004 741.855 121.449C738.416 117.907 733.863 116.123 728.182 116.123C722.502 116.123 717.934 117.893 714.509 121.449C711.069 124.99 709.356 129.659 709.356 135.427C709.356 141.196 711.069 145.865 714.509 149.406C717.949 152.947 722.502 154.732 728.182 154.732C733.863 154.732 738.43 152.961 741.855 149.406C745.295 145.865 747.008 141.196 747.008 135.427ZM771.343 88.6363C771.343 91.5206 770.215 93.7908 767.974 95.4757C765.962 97.0321 763.678 98.3315 761.138 99.3452C758.583 100.359 756.014 100.873 753.416 100.873C750.576 100.873 749.149 99.4309 749.149 96.5609V29.1087C749.149 25.2678 748.021 22.3978 745.78 20.4844C744.125 19.1708 742.498 18.0856 740.899 17.2432C739.301 16.4008 737.673 15.6868 736.018 15.0871C734.59 14.4874 733.948 13.5879 734.062 12.3885C734.305 10.7179 734.833 8.86165 735.661 6.83409C736.489 4.79224 737.317 3.17876 738.144 1.97936C738.744 1.1512 739.686 0.837069 740.985 1.07981C746.08 2.03647 751.175 3.50717 756.257 5.47762C761.352 7.44807 765.962 9.81832 770.115 12.5741C772.37 14.0162 773.312 15.8725 772.956 18.1428C772.599 20.8985 772.242 23.7542 771.885 26.6814C771.528 29.6085 771.357 32.6498 771.357 35.7626V88.6505L771.343 88.6363Z" fill="#FF0000" stroke="white" stroke-width="2" stroke-miterlimit="10"/>
<path d="M818.586 35.7197C816.102 37.8757 814.789 40.6886 814.675 44.1583C814.561 45.6005 814.504 47.1854 814.504 48.9131V53.4965C814.504 55.1671 813.676 56.0096 812.02 56.0096H803.842C802.415 56.0096 801.416 55.7097 800.83 55.11C800.231 54.5103 799.817 53.7964 799.589 52.954L796.392 31.0506C798.404 28.8945 800.802 26.8669 803.585 24.9536C806.368 23.0403 809.408 21.2983 812.734 19.7419C816.045 18.1855 819.599 16.9576 823.396 16.058C827.178 15.1585 831.146 14.7158 835.299 14.7158C840.98 14.7158 846.26 15.3726 851.113 16.6863C855.966 17.9999 860.176 19.9418 863.73 22.5119C867.284 25.0821 870.067 28.3519 872.08 32.2928C874.092 36.248 875.091 40.8457 875.091 46.1145C875.091 50.2981 874.563 54.1105 873.493 57.5088C872.422 60.9071 870.909 64.0342 868.968 66.847C867.013 69.6599 864.701 72.3015 862.046 74.7431C859.377 77.199 856.508 79.555 853.425 81.8396C850.342 84.2384 847.745 86.9228 845.604 89.907C843.477 92.9055 842.05 96.1896 841.336 99.7878C840.865 102.187 840.537 104.928 840.366 108.041C840.194 111.154 840.095 114.081 840.095 116.836H825.351C824.88 113.367 824.609 109.412 824.552 104.985C824.495 100.559 824.88 96.5466 825.708 92.9626C826.65 89.0075 828.248 85.2807 830.503 81.7396C832.758 78.2128 835.599 75.0715 839.038 72.3158C843.177 69.0888 846.432 65.4906 848.801 61.5497C851.17 57.5945 852.355 52.9397 852.355 47.5566C852.355 42.1736 850.699 38.3755 847.388 35.4341C844.077 32.507 839.809 30.922 834.6 30.6793C831.517 30.5651 828.534 30.9506 825.622 31.8502C822.71 32.7497 820.384 34.0348 818.6 35.7054L818.586 35.7197ZM846.66 145.579C846.66 149.763 845.333 153.204 842.664 155.903C839.995 158.601 836.598 159.944 832.444 159.944C828.291 159.944 824.894 158.601 822.225 155.903C819.556 153.218 818.229 149.777 818.229 145.579C818.229 141.381 819.556 137.955 822.225 135.256C824.894 132.572 828.291 131.215 832.444 131.215C836.598 131.215 839.995 132.557 842.664 135.256C845.333 137.955 846.66 141.396 846.66 145.579Z" fill="#FF0000" stroke="white" stroke-width="2" stroke-miterlimit="10"/>
<path d="M53.2975 30.5083C56.3804 30.5083 59.1636 29.4374 61.6471 27.2813C62.3607 26.6816 63.3027 26.4103 64.4873 26.4817C65.672 26.5388 66.8566 26.8101 68.0412 27.2813C70.0537 27.9952 72.1803 28.9947 74.4354 30.237C76.6905 31.4935 78.703 32.8357 80.4728 34.2778C81.4148 34.9918 81.8287 35.8056 81.7145 36.7052C81.6003 37.6047 81.3577 38.4757 81.0009 39.3039C73.4221 58.4515 64.1876 75.1147 53.2832 89.2933C42.3789 103.472 30.8323 115.223 18.6435 124.562C17.6872 125.275 16.6024 125.904 15.3607 126.446C14.1189 126.989 12.8487 127.132 11.5499 126.889C10.0084 126.646 8.43846 126.118 6.83991 125.275C5.24137 124.447 3.67139 123.419 2.12994 122.22C1.18795 121.62 0.831142 120.821 1.07378 119.792C1.30214 118.779 1.78741 117.965 2.50105 117.365C7.46794 112.696 12.4205 107.613 17.3303 102.101C22.2401 96.604 26.9216 90.8211 31.3604 84.7813C35.7992 78.7414 39.8527 72.4588 43.535 65.9335C47.2031 59.4082 50.2289 52.7401 52.5982 45.9149H43.007C40.3951 45.9149 37.8545 46.0006 35.371 46.1862C32.8876 46.3718 30.5754 46.7573 28.4488 47.357C23.4819 48.6707 18.6862 49.3275 14.0619 49.3275C12.5204 49.3275 11.3644 49.1419 10.5936 48.7849C9.82291 48.4279 9.08075 47.7711 8.38139 46.8145C7.08257 44.9011 5.82651 42.588 4.65615 39.9036C3.47152 37.2049 2.7008 34.6633 2.34398 32.2788C2.10135 31.3221 2.31544 30.5083 2.97198 29.8515C3.61425 29.1946 4.42779 28.9805 5.36978 29.2232C8.32423 29.8229 11.4643 30.1799 14.7898 30.2941C18.1011 30.4083 21.7691 30.4654 25.8083 30.4654H53.3404L53.2975 30.5083ZM98.0709 29.98C98.0709 26.396 97.0005 23.5831 94.8739 21.5413C93.2182 20.0992 91.5912 18.8855 89.9926 17.8574C88.3941 16.8293 86.767 16.0297 85.1114 15.43C83.5699 14.8303 82.9276 13.8166 83.156 12.3744C83.3843 10.7038 83.8981 8.87616 84.6689 6.90571C85.4396 4.93526 86.2389 3.35034 87.0668 2.15093C87.7804 1.19426 88.8508 0.837299 90.2638 1.08004C95.4734 2.0367 100.512 3.65019 105.364 5.93477C110.217 8.20507 114.713 10.7181 118.866 13.4739C121.121 14.916 122.063 16.7722 121.707 19.0425C121.35 21.7983 121.021 24.6398 120.722 27.5669C120.422 30.5083 120.279 33.5211 120.279 36.6338V68.2324H121.878C123.533 68.2324 125.075 68.0896 126.502 67.7897C127.929 67.4899 129.4 67.1044 130.941 66.6189C134.01 65.6622 136.679 65.1768 138.934 65.1768C140.832 65.1768 142.373 65.9478 143.558 67.5042C145.214 69.546 146.484 71.8734 147.383 74.5007C148.268 77.1422 148.839 79.6553 149.067 82.0398C149.182 82.9965 148.925 83.7818 148.268 84.3815C147.612 84.9812 146.755 85.1525 145.685 84.9098C143.315 84.5528 140.889 84.253 138.406 84.0102C135.922 83.7675 133.068 83.6533 129.885 83.6533H120.294V152.762C120.294 155.632 119.166 157.902 116.911 159.587C114.898 161.143 112.615 162.428 110.074 163.442C107.52 164.456 104.95 164.97 102.353 164.97C99.5125 164.97 98.0852 163.528 98.0852 160.658V29.98H98.0709Z" fill="#FF0000" stroke="white" stroke-width="2" stroke-miterlimit="10"/>
</svg>
